<svg xmlns="http://www.w3.org/2000/svg" width="55" height="70" viewBox="0 0 55 70">
  <defs>
    <style>
      .cls-1 {
        fill: #1085e4;
        fill-rule: evenodd;
      }
    </style>
  </defs>
  <path id="doc.svg" class="cls-1" d="M977.931,1460H940v70h55v-52.98Zm0.686,3.98,12.388,12.35H978.617v-12.35Zm-36.277,63.69v-65.34h33.937v16.34h16.382v49H942.34Zm9.362-47.84h10.532a1.165,1.165,0,1,0,0-2.33H951.7A1.165,1.165,0,1,0,951.7,1479.83Zm19.894,23.34H951.7a1.165,1.165,0,1,0,0,2.33H971.6A1.165,1.165,0,1,0,971.6,1503.17Zm11.7-8.17h-8.192a1.165,1.165,0,1,0,0,2.33H983.3A1.165,1.165,0,1,0,983.3,1495Zm-31.6-5.83h5.851a1.17,1.17,0,0,0,0-2.34H951.7A1.17,1.17,0,1,0,951.7,1489.17Zm17.553,0h8.192a1.17,1.17,0,0,0,0-2.34h-8.192A1.17,1.17,0,1,0,969.255,1489.17Zm-7.021-1.17a1.17,1.17,0,1,0,.339-0.83A1.235,1.235,0,0,0,962.234,1488Zm-4.681,7a1.165,1.165,0,1,0,0,2.33h11.7a1.165,1.165,0,1,0,0-2.33h-11.7Zm-5.851,2.33a1.234,1.234,0,0,0,.831-0.34,1.173,1.173,0,0,0,0-1.65,1.232,1.232,0,0,0-1.662,0,1.2,1.2,0,0,0-.339.83,1.21,1.21,0,0,0,.339.82A1.236,1.236,0,0,0,951.7,1497.33Zm31.6,14h-8.192a1.17,1.17,0,1,0,0,2.34H983.3A1.17,1.17,0,0,0,983.3,1511.33Zm-14.043,0h-11.7a1.17,1.17,0,1,0,0,2.34h11.7A1.17,1.17,0,0,0,969.255,1511.33Zm-18.384.34a1.179,1.179,0,0,0-.339.83,1.163,1.163,0,0,0,.339.83,1.236,1.236,0,0,0,.831.34,1.212,1.212,0,0,0,.831-0.34,1.23,1.23,0,0,0,.339-0.83,1.151,1.151,0,0,0-.339-0.82A1.221,1.221,0,0,0,950.871,1511.67Zm31.6-24.5a1.175,1.175,0,0,0,1.662,1.66,1.186,1.186,0,0,0,0-1.66A1.232,1.232,0,0,0,982.467,1487.17Zm-4.189,17.99a1.216,1.216,0,0,0,.339-0.83,1.254,1.254,0,0,0-.339-0.83,1.232,1.232,0,0,0-1.662,0,1.249,1.249,0,0,0-.339.83,1.211,1.211,0,0,0,.339.83,1.168,1.168,0,0,0,.831.34A1.214,1.214,0,0,0,978.278,1505.16Zm4.189-1.66a1.249,1.249,0,0,0-.339.83,1.17,1.17,0,1,0,2.34,0,1.254,1.254,0,0,0-.339-0.83A1.232,1.232,0,0,0,982.467,1503.5Z" transform="translate(-940 -1460)"/>
</svg>
